<svg width="64" height="64" viewBox="0 0 64 64" fill="none" xmlns="http://www.w3.org/2000/svg">
  <defs>
    <linearGradient id="fav" x1="8" y1="8" x2="56" y2="56" gradientUnits="userSpaceOnUse">
      <stop stop-color="#22D3EE"/>
      <stop offset="1" stop-color="#2563EB"/>
    </linearGradient>
  </defs>
  <rect x="6" y="6" width="52" height="52" rx="16" fill="url(#fav)"/>
  <path d="M32 16C23.1634 16 16 23.1634 16 32V35.4286C16 39.8472 19.5814 43.4286 24 43.4286H26.6667V56H37.3333V43.4286H40C44.4186 43.4286 48 39.8472 48 35.4286V32C48 23.1634 40.8366 16 32 16ZM26.6667 33.9048C24.9831 33.9048 23.619 32.5407 23.619 30.8571C23.619 29.1736 24.9831 27.8095 26.6667 27.8095C28.3502 27.8095 29.7143 29.1736 29.7143 30.8571C29.7143 32.5407 28.3502 33.9048 26.6667 33.9048ZM37.3333 33.9048C35.6498 33.9048 34.2857 32.5407 34.2857 30.8571C34.2857 29.1736 35.6498 27.8095 37.3333 27.8095C39.0169 27.8095 40.381 29.1736 40.381 30.8571C40.381 32.5407 39.0169 33.9048 37.3333 33.9048Z" fill="white"/>
</svg>
